#N canvas 506 141 635 767 10;
#X obj 64 679 hsl 136 16 0 1 0 0 empty empty empty -2 -8 0 10 #fcfcfc #000000 #000000 0 1;
#X floatatom 61 701 10 0 0 0 - - - 0;
#X obj 61 510 osc~ 100;
#X msg 125 510 frequency \$1;
#X obj 128 453 hsl 136 16 10 10000 1 0 empty empty empty -2 -8 0 10 #fcfcfc #000000 #000000 0 1;
#X floatatom 125 474 5 0 0 0 - - - 0;
#X obj 64 389 hsl 512 16 0 24000 0 0 empty empty empty -2 -8 0 10 #fcfcfc #000000 #000000 0 1;
#X floatatom 61 410 8 0 0 0 - - - 0;
#X obj 284 453 hsl 136 16 10 10000 1 0 empty empty empty -2 -8 0 10 #fcfcfc #000000 #000000 0 1;
#N canvas 1120 372 702 577 reblocked_goertzel 0;
#X obj 64 58 inlet~;
#X obj 64 343 outlet;
#X obj 115 343 outlet;
#N canvas 0 22 450 278 (subpatch) 0;
#X array \$0-hanning 512 float 0;
#X coords 0 1 511 0 256 100 1 0 0;
#X restore 64 427 graph;
#X obj 196 119 loadbang;
#X obj 196 140 bng 16 250 50 0 empty empty empty 0 -8 0 10 #fcfcfc #000000 #000000;
#X obj 215 203 samplerate~;
#X obj 196 343 tabwrite~ \$0-hanning;
#X obj 215 245 osc~;
#X msg 236 182 0;
#X obj 196 161 t b b b;
#X obj 215 287 *~ -0.5;
#X obj 215 266 -~ 1;
#X text 70 224 / (2*N) to normalize;
#X obj 518 58 inlet;
#X obj 578 142 samplerate~;
#X obj 485 142 bang~;
#X obj 485 223 f;
#X obj 512 223 + 1;
#X obj 485 184 spigot;
#X msg 518 163 1;
#X msg 547 163 0;
#X obj 563 286 *;
#X obj 518 79 t b b b;
#X msg 500 122 0;
#X obj 380 343 pow 2;
#X obj 434 343 pow 2;
#X obj 380 364 +;
#X obj 380 385 sqrt;
#X obj 366 427 tabwrite \$0-frequency-response;
#X msg 563 343 frequency \$1;
#X obj 578 184 / 2;
#X obj 215 224 / 64;
#X obj 485 244 sel 512;
#X obj 578 163 / 512;
#X obj 79 89 tabreceive~ \$0-hanning;
#X obj 64 119 *~;
#X obj 64 203 / 128;
#X obj 115 203 / 128;
#X obj 64 182 goertzel~;
#X obj 366 406 f;
#X obj 524 265 t b f f;
#X obj 196 58 block~ 512 8;
#X connect 0 0 36 0;
#X connect 0 1 39 0;
#X connect 4 0 5 0;
#X connect 5 0 10 0;
#X connect 6 0 32 0;
#X connect 8 0 12 0;
#X connect 9 0 8 1;
#X connect 10 0 7 0;
#X connect 10 1 6 0;
#X connect 10 2 9 0;
#X connect 11 0 7 0;
#X connect 12 0 11 0;
#X connect 14 0 23 0;
#X connect 15 0 34 0;
#X connect 16 0 19 0;
#X connect 17 0 18 0;
#X connect 17 0 33 0;
#X connect 18 0 17 1;
#X connect 19 0 17 0;
#X connect 20 0 19 1;
#X connect 21 0 19 1;
#X connect 22 0 30 0;
#X connect 23 0 20 0;
#X connect 23 1 24 0;
#X connect 23 2 15 0;
#X connect 24 0 17 1;
#X connect 25 0 27 0;
#X connect 26 0 27 1;
#X connect 27 0 28 0;
#X connect 28 0 40 1;
#X connect 30 0 39 0;
#X connect 31 0 22 1;
#X connect 32 0 8 0;
#X connect 33 0 21 0;
#X connect 33 1 41 0;
#X connect 34 0 31 0;
#X connect 35 0 36 1;
#X connect 36 0 39 0;
#X connect 37 0 1 0;
#X connect 37 0 25 0;
#X connect 38 0 2 0;
#X connect 38 0 26 0;
#X connect 39 0 37 0;
#X connect 39 1 38 0;
#X connect 40 0 29 0;
#X connect 41 0 40 0;
#X connect 41 1 29 1;
#X connect 41 2 22 0;
#X restore 61 565 pd reblocked_goertzel;
#X obj 61 598 pow 2;
#X obj 184 603 pow 2;
#X obj 61 640 sqrt;
#X obj 61 619 +;
#X floatatom 281 474 5 0 0 0 - - - 0;
#X obj 281 494 t a a;
#X text 195 564 <-- check here for reblocked \, overlapped and normalized goertzel application and output;
#X obj 436 453 bng 16 250 50 0 empty empty empty 0 -8 0 10 #fcfcfc #000000 #000000;
#N canvas 0 22 450 278 (subpatch) 0;
#X array \$0-frequency-response 512 float 0;
#X coords 0 1 511 0 512 300 1 0 0;
#X restore 63 55 graph;
#X text 59 374 input frequency;
#X text 125 438 detection frequency;
#X text 280 438 change both;
#X text 456 452 <-- draw goertzel filter's frequency response, f 18;
#X connect 0 0 1 0;
#X connect 2 0 9 0;
#X connect 3 0 9 0;
#X connect 4 0 5 0;
#X connect 5 0 3 0;
#X connect 6 0 7 0;
#X connect 7 0 2 0;
#X connect 8 0 14 0;
#X connect 9 0 10 0;
#X connect 9 1 11 0;
#X connect 10 0 13 0;
#X connect 11 0 13 1;
#X connect 12 0 0 0;
#X connect 13 0 12 0;
#X connect 14 0 15 0;
#X connect 15 0 2 0;
#X connect 15 1 3 0;
#X connect 17 0 9 1;
