#N canvas 947 73 728 750 10;
#X obj 187 46 inlet~;
#X obj 75 266 until;
#X obj 75 245 t f b;
#X msg 114 266 0;
#X obj 102 287 + 1;
#X obj 48 46 bang~;
#X obj 572 148 block~ 64;
#X obj 228 127 loadbang;
#X msg 572 127 set \$1 1 1;
#X obj 545 46 r \$0-blocksize;
#X obj 88 88 tabwrite~ \$0-block;
#X obj 418 182 samplerate~;
#X obj 319 127 sel 0;
#X obj 319 203 s \$0-blocksize;
#X obj 220 88 route frequency blocksize;
#X obj 220 203 s \$0-frequency;
#X obj 418 203 s \$0-samplerate;
#X obj 228 148 t b b b;
#X obj 220 182 f \$1;
#X obj 319 182 f 64;
#X obj 418 264 r \$0-frequency;
#X obj 433 285 r \$0-blocksize;
#X obj 467 306 r \$0-samplerate;
#X obj 433 322 /;
#X obj 418 343 *;
#X obj 418 364 + 0.5;
#X obj 418 385 i;
#X floatatom 418 406 5 0 0 0 - - - 0;
#X obj 418 426 s \$0-k;
#X obj 220 263 r \$0-k;
#X obj 235 284 r \$0-blocksize;
#X obj 220 305 /;
#X obj 220 326 * 3.14159;
#X obj 220 347 * 2;
#X obj 220 368 t f f;
#X obj 316 384 cos;
#X obj 220 389 sin;
#X obj 316 405 * 2;
#X obj 316 426 s \$0-realW;
#X obj 220 426 s \$0-imagW;
#X obj 96 203 r \$0-blocksize;
#X obj 75 224 f 64;
#X obj 75 308 tabread \$0-block;
#X obj 102 462 *;
#X obj 102 483 -;
#X obj 117 441 r \$0-realW;
#X obj 75 504 +;
#X obj 75 525 t f f, f 17;
#X obj 75 330 t f b;
#X obj 129 462 f;
#X obj 83 405 t f f b;
#X obj 129 483 s \$0-d2;
#X obj 102 372 s \$0-d1;
#X obj 63 605 r \$0-realW;
#X obj 75 652 r \$0-d2;
#X obj 75 631 r \$0-d1;
#X obj 48 203 t b b;
#X obj 48 647 *;
#X obj 48 626 *;
#X msg 48 584 0.5;
#X obj 48 668 -;
#X obj 48 563 t b b;
#X obj 167 668 *;
#X obj 182 647 r \$0-imagW;
#X obj 167 626 f;
#X obj 182 605 r \$0-d1;
#X obj 167 689 outlet;
#X text 209 688 resulti;
#X obj 48 689 outlet;
#X text 90 688 resultr;
#X obj 545 203 array define \$0-block 64;
#X msg 545 182 resize \$1;
#X obj 545 76 t f f;
#X text 599 688 Ben Wesch \, 2024;
#X text 378 646 https://www.mstarlabs.com/dsp/goertzel/goertzel.html;
#X obj 75 287 f 0;
#X obj 102 351 f 0;
#X connect 0 0 10 0;
#X connect 0 1 14 0;
#X connect 1 0 75 0;
#X connect 2 0 1 0;
#X connect 2 1 3 0;
#X connect 3 0 49 1;
#X connect 3 0 75 1;
#X connect 3 0 76 1;
#X connect 4 0 75 1;
#X connect 5 0 10 0;
#X connect 5 0 56 0;
#X connect 7 0 17 0;
#X connect 8 0 6 0;
#X connect 9 0 72 0;
#X connect 11 0 16 0;
#X connect 12 0 19 0;
#X connect 12 1 19 0;
#X connect 14 0 18 0;
#X connect 14 1 12 0;
#X connect 17 0 18 0;
#X connect 17 1 19 0;
#X connect 17 2 11 0;
#X connect 18 0 15 0;
#X connect 19 0 13 0;
#X connect 20 0 24 0;
#X connect 21 0 23 0;
#X connect 22 0 23 1;
#X connect 23 0 24 1;
#X connect 24 0 25 0;
#X connect 25 0 26 0;
#X connect 26 0 27 0;
#X connect 27 0 28 0;
#X connect 29 0 31 0;
#X connect 30 0 31 1;
#X connect 31 0 32 0;
#X connect 32 0 33 0;
#X connect 33 0 34 0;
#X connect 34 0 36 0;
#X connect 34 1 35 0;
#X connect 35 0 37 0;
#X connect 36 0 39 0;
#X connect 37 0 38 0;
#X connect 40 0 41 1;
#X connect 41 0 2 0;
#X connect 42 0 48 0;
#X connect 43 0 44 0;
#X connect 44 0 46 1;
#X connect 45 0 43 1;
#X connect 46 0 47 0;
#X connect 47 1 76 1;
#X connect 48 0 46 0;
#X connect 48 1 76 0;
#X connect 49 0 44 1;
#X connect 49 0 51 0;
#X connect 50 0 49 1;
#X connect 50 1 43 0;
#X connect 50 2 49 0;
#X connect 53 0 58 1;
#X connect 54 0 60 1;
#X connect 55 0 57 1;
#X connect 56 0 61 0;
#X connect 56 1 41 0;
#X connect 57 0 60 0;
#X connect 58 0 57 0;
#X connect 59 0 58 0;
#X connect 60 0 68 0;
#X connect 61 0 59 0;
#X connect 61 1 64 0;
#X connect 62 0 66 0;
#X connect 63 0 62 1;
#X connect 64 0 62 0;
#X connect 65 0 64 1;
#X connect 71 0 70 0;
#X connect 72 0 71 0;
#X connect 72 1 8 0;
#X connect 75 0 4 0;
#X connect 75 0 42 0;
#X connect 76 0 50 0;
#X connect 76 0 52 0;
